<?xml version="1.0" encoding="utf-8"?>
<!DOCTYPE svg PUBLIC "-//W3C//DTD SVG 1.0//EN" "http://www.w3.org/TR/2001/REC-SVG-20010904/DTD/svg10.dtd">
<svg version="1.0" xmlns="http://www.w3.org/2000/svg" width="783px" height="783px" viewBox="0 0 783 783" preserveAspectRatio="xMidYMid meet">
 <g fill="#ffffff">
  <path d="M0 391.50 l0 -391.50 391.50 0 391.50 0 0 391.50 0 391.50 -391.50 0 -391.50 0 0 -391.50z m404.12 321.92 c8.49 -5.05 15.75 -9.18 16.13 -9.18 0.31 0 1.15 -0.46 1.76 -1.07 1.61 -1.38 14.60 -8.87 15.45 -8.87 0.38 0 2.37 -1.22 4.43 -2.68 1.99 -1.45 4.05 -2.68 4.43 -2.68 0.46 0 1.61 -0.69 2.68 -1.45 2.98 -2.37 18.96 -11.55 20.03 -11.55 0.61 0 1.53 -0.54 2.06 -1.22 0.54 -0.69 1.68 -1.53 2.60 -1.91 0.84 -0.38 2.45 -1.30 3.59 -2.06 3.67 -2.37 18.05 -10.86 18.50 -10.86 0.23 0 1.91 -0.99 3.75 -2.29 1.84 -1.22 4.21 -2.60 5.20 -3.06 0.99 -0.46 2.91 -1.45 4.13 -2.29 1.30 -0.84 2.83 -1.76 3.44 -2.06 0.61 -0.31 3.82 -2.22 7.03 -4.21 3.29 -1.99 6.35 -3.67 6.73 -3.67 0.46 0 1.99 -0.76 3.29 -1.76 1.38 -0.92 3.14 -2.06 3.98 -2.60 1.30 -0.76 15.90 -9.48 23.02 -13.69 1.30 -0.84 4.74 -2.83 7.65 -4.51 2.91 -1.68 5.81 -3.36 6.58 -3.82 10.55 -6.27 15.60 -9.18 17.97 -10.25 0.92 -0.46 3.14 -1.84 4.89 -3.14 1.76 -1.22 3.59 -2.29 4.13 -2.29 0.46 0 2.06 -0.92 3.52 -1.99 1.45 -1.07 3.29 -2.29 4.13 -2.68 0.84 -0.46 2.22 -1.15 3.06 -1.68 1.53 -0.92 14.15 -8.41 16.44 -9.71 0.61 -0.38 3.98 -2.45 7.49 -4.51 3.52 -2.14 6.58 -3.90 6.81 -3.90 0.23 0 2.29 -1.22 4.51 -2.68 2.22 -1.45 4.28 -2.68 4.59 -2.68 0.31 0 1.15 -0.46 1.76 -1.07 0.69 -0.54 3.14 -2.06 5.43 -3.29 2.29 -1.30 6.35 -3.67 9.02 -5.20 l4.74 -2.91 0 -171.20 0 -171.13 -3.29 -1.99 c-9.94 -5.96 -37.24 -21.95 -61.71 -36.24 -15.37 -8.95 -30.28 -17.74 -33.26 -19.50 -2.91 -1.76 -21.72 -12.77 -41.67 -24.47 -19.96 -11.70 -45.11 -26.46 -55.82 -32.73 -36.78 -21.56 -82.96 -48.48 -84.65 -49.40 -1.53 -0.76 -4.28 0.61 -25.62 13.23 -13.15 7.72 -26.69 15.68 -30.05 17.66 -3.36 2.06 -8.33 4.97 -11.09 6.50 -11.09 6.27 -81.59 47.71 -83.73 49.24 -1.22 0.92 -3.14 2.06 -4.21 2.52 -1.84 0.76 -24.77 14.15 -50.47 29.29 -6.96 4.13 -21.87 12.92 -33.26 19.50 -11.32 6.65 -21.56 12.69 -22.71 13.46 -1.07 0.84 -2.22 1.45 -2.45 1.45 -0.31 0 -1.91 0.84 -3.59 1.99 -1.68 1.07 -4.36 2.60 -5.89 3.52 -1.53 0.84 -4.66 2.60 -6.88 3.90 l-3.98 2.45 0.15 170.90 0.23 170.90 15.75 9.18 c26.30 15.37 72.11 42.21 87.48 51.23 8.03 4.74 23.63 13.92 34.79 20.42 21.87 12.77 129.76 75.93 140.31 82.12 1.68 0.99 3.52 1.84 4.05 1.84 0.54 0 8.03 -4.13 16.59 -9.18z"/>
  <path d="M363.59 686.96 c-11.78 -7.03 -36.70 -21.72 -55.44 -32.65 -88.55 -51.77 -121.73 -71.11 -162.49 -94.82 -7.95 -4.66 -15.83 -9.25 -17.36 -10.32 l-2.91 -1.91 0 -160.73 0 -160.81 6.73 -3.75 c6.58 -3.75 52.53 -30.59 103 -60.25 19.58 -11.47 60.79 -35.63 69.20 -40.53 34.49 -20.11 77.15 -45.11 78.38 -45.96 1.99 -1.38 7.26 -1.38 9.33 0.08 1.45 0.99 26.99 15.98 134.43 78.76 35.86 20.95 79.75 46.64 109.19 64 l12.77 7.57 0 161.11 0 161.11 -6.73 3.90 c-13.53 7.80 -57.58 33.64 -73.56 43.13 -9.02 5.35 -24.85 14.60 -35.17 20.65 -10.32 5.96 -21.49 12.54 -24.85 14.53 -8.11 4.89 -30.51 18.05 -42.44 24.85 -5.28 3.06 -12.08 7.03 -15.22 8.87 -3.06 1.84 -7.34 4.36 -9.56 5.58 -2.14 1.15 -10.55 6.19 -18.66 11.09 -8.18 4.89 -16.21 9.71 -17.97 10.71 -1.76 0.99 -4.05 2.29 -5.12 2.98 -4.97 3.14 -10.09 5.51 -12 5.51 -1.38 0 -9.94 -4.66 -23.55 -12.69z m-126.55 -121.50 l0 -10.32 13 0 13 0 0 10.32 0 10.32 3.82 0 3.82 0 0 -22.94 0 -22.94 -3.82 0 -3.82 0 0 9.56 0 9.56 -13 0 -13 0 0 -9.56 0 -9.56 -3.82 0 -3.82 0 0 22.94 0 22.94 3.82 0 3.82 0 0 -10.32z m53.45 4.97 l2.06 -4.97 13.76 -0.23 13.84 -0.15 2.37 5.35 2.37 5.35 3.06 0 3.14 0 -1.76 -3.75 c-0.92 -2.06 -5.66 -12.39 -10.48 -22.94 l-8.79 -19.12 -3.90 -0.08 -3.98 0 -3.29 7.49 c-1.76 4.05 -6.27 14.30 -10.02 22.63 -3.67 8.41 -6.73 15.37 -6.73 15.52 0 0.15 1.38 0.23 3.14 0.08 3.06 -0.23 3.14 -0.31 5.20 -5.20z m68.13 -3.67 l0 -8.95 6.96 -11.47 c3.82 -6.35 7.65 -12.62 8.49 -13.92 l1.53 -2.52 -2.68 0 c-2.52 0 -2.75 0.23 -8.72 10.17 -5.81 9.71 -6.12 10.09 -8.79 10.32 l-2.75 0.23 -6.27 -10.32 -6.35 -10.40 -2.91 0 -2.91 0 8.41 13.92 8.33 13.92 0 9.02 0 9.02 3.82 0 3.82 0 0 -9.02z m28.22 3.44 l1.99 -5.12 13.99 0.15 13.99 0.23 2.22 4.97 c2.14 4.82 2.29 4.97 5.28 5.20 1.76 0.15 3.14 0.08 3.14 -0.15 0 -0.54 -15.83 -35.10 -18.81 -41.14 l-2.14 -4.43 -3.75 0 -3.67 0 -2.75 5.96 c-3.21 7.03 -15.22 33.87 -16.82 37.47 l-1.07 2.52 3.21 -0.23 c3.21 -0.23 3.21 -0.23 5.20 -5.43z m56.89 0.23 l2.22 -5.35 13.84 0.15 13.84 0.23 2.06 4.97 2.14 4.97 3.36 0.23 3.44 0.23 -7.49 -16.29 c-4.05 -8.95 -8.87 -19.35 -10.55 -23.02 l-3.14 -6.73 -3.98 0.23 -4.05 0.23 -9.79 22.17 c-5.35 12.16 -9.79 22.40 -9.79 22.71 0 0.38 1.30 0.61 2.91 0.61 2.83 0 2.83 -0.08 4.97 -5.35z m67.06 -14.91 l0 -20.26 7.65 0 7.65 0 0 -2.68 0 -2.68 -19.12 0 -19.12 0 0 2.68 0 2.68 7.65 0 7.65 0 0 19.73 c0 10.86 0.23 20.03 0.54 20.26 0.23 0.31 1.99 0.54 3.82 0.54 l3.29 0 0 -20.26z m34.41 -2.68 l0 -22.94 -3.82 0 -3.82 0 0 22.94 0 22.94 3.82 0 3.82 0 0 -22.94z m-142.76 -56.58 c1.91 -2.75 2.52 -3.06 5.35 -3.06 2.45 0 4.21 0.69 7.26 2.75 2.22 1.53 4.13 2.68 4.28 2.52 0.08 -0.15 1.22 -1.84 2.52 -3.75 l2.37 -3.44 -2.06 -1.45 c-1.07 -0.84 -3.06 -2.29 -4.43 -3.36 l-2.45 -1.76 -2.52 3.82 c-2.29 3.44 -2.83 3.90 -5.28 3.90 -2.14 0 -3.75 -0.76 -6.65 -3.06 -2.06 -1.68 -4.13 -3.06 -4.43 -3.06 -0.76 0.08 -4.89 5.81 -4.89 6.73 0.08 0.54 7.65 6.27 8.41 6.27 0.23 0 1.38 -1.38 2.52 -3.06z m-90.84 -6.50 c13.99 -4.59 30.13 -13.92 37.01 -21.41 3.67 -4.05 6.27 -9.33 7.34 -14.99 0.38 -2.22 0.15 -2.91 -1.68 -4.66 -1.22 -1.15 -4.05 -2.75 -6.35 -3.52 l-4.21 -1.45 0.08 -3.36 c0.08 -1.84 0.92 -5.43 1.84 -7.95 2.06 -5.58 2.22 -12.46 0.46 -16.82 -1.99 -4.74 -7.49 -14.15 -8.11 -13.76 -0.31 0.23 -0.99 1.84 -1.53 3.75 -0.92 3.29 -0.92 3.44 3.75 12.69 5.28 10.48 5.96 14.30 2.98 16.36 -2.22 1.53 -7.57 3.29 -13.69 4.51 -4.89 0.99 -4.89 0.99 -6.96 5.12 -1.15 2.29 -2.06 4.66 -1.91 5.28 0.08 0.76 2.75 1.53 8.56 2.52 9.56 1.61 16.52 3.29 19.42 4.66 1.53 0.69 2.06 1.61 2.22 3.67 0.23 2.60 0.08 2.75 -5.35 5.89 -8.18 4.59 -17.74 8.95 -25.92 11.70 -6.27 2.14 -8.56 2.52 -17.43 2.83 -15.60 0.54 -22.79 -1.68 -29.52 -9.18 -4.74 -5.28 -6.12 -9.79 -6.12 -20.26 0 -4.66 -0.23 -8.11 -0.54 -7.49 -1.30 2.22 -3.67 13.99 -3.67 17.97 0 18.73 14.99 32.04 34.79 30.97 4.28 -0.15 8.64 -1.15 14.53 -3.06z m174.72 1.15 c0.76 -0.54 -0.46 -0.76 -4.21 -0.76 -3.75 0 -4.97 0.23 -4.21 0.76 0.61 0.38 2.52 0.76 4.21 0.76 1.68 0 3.59 -0.38 4.21 -0.76z m-90.76 -20.19 c2.75 -1.22 5.35 -3.21 7.88 -6.12 3.29 -3.75 4.05 -4.28 6.65 -4.28 2.60 0 3.44 0.46 6.35 3.75 7.72 8.64 19.19 8.95 36.24 1.07 3.59 -1.68 7.88 -3.52 9.56 -4.05 1.68 -0.54 4.36 -1.61 5.89 -2.37 7.72 -3.90 14.38 -5.35 26.38 -5.81 l11.55 -0.46 2.29 -5.12 2.29 -5.12 -5.89 -0.46 c-8.79 -0.69 -22.02 -4.36 -35.86 -9.94 -17.05 -6.96 -19.27 -7.57 -23.93 -6.58 -2.06 0.46 -4.82 1.68 -6.04 2.75 -2.68 2.22 -6.58 8.49 -5.73 9.25 0.23 0.31 5.35 0.54 11.32 0.54 10.63 0.08 11.01 0.15 19.12 2.98 l8.26 2.98 -0.23 2.68 c-0.23 2.60 -0.38 2.68 -7.88 5.58 -14.30 5.58 -20.49 7.11 -29.82 7.11 -7.57 0.08 -8.72 -0.08 -11.85 -1.84 -2.60 -1.45 -3.90 -2.91 -5.43 -5.96 l-1.91 -3.98 -3.59 4.51 c-4.74 6.19 -8.26 7.88 -16.59 8.33 -7.72 0.38 -11.09 -0.69 -13.99 -4.51 -4.21 -5.66 -4.82 -10.32 -5.89 -45.19 -0.76 -24.70 -1.84 -35.86 -4.51 -44.96 l-1.45 -4.97 -1.99 4.43 c-1.45 3.14 -1.84 4.82 -1.30 5.73 1.07 1.99 2.91 11.78 3.82 20.11 0.46 4.05 1.15 17.28 1.61 29.44 0.92 23.93 2.14 35.10 4.59 40.68 2.68 5.96 7.11 9.71 13 10.93 1.45 0.31 2.75 0.54 2.83 0.61 0.08 0 1.99 -0.76 4.28 -1.76z m89.23 -1.22 c-0.61 -0.38 -1.99 -0.76 -3.06 -0.76 -1.07 0 -2.45 0.38 -3.06 0.76 -0.84 0.54 0.08 0.76 3.06 0.76 2.98 0 3.90 -0.23 3.06 -0.76z m-172.12 -50.01 c0.92 -1.38 1.61 -2.75 1.61 -2.91 0 -0.84 -6.88 -2.14 -10.93 -2.14 -3.44 0 -4.51 0.31 -6.19 1.99 -1.07 1.15 -1.99 2.29 -1.99 2.60 0 0.31 3.36 0.76 7.42 0.92 4.82 0.23 7.49 0.61 7.72 1.22 0.38 1.30 0.61 1.22 2.37 -1.68z m91.83 -1.99 c3.14 -1.61 5.43 -2.98 4.97 -2.98 -0.38 0 -3.36 1.38 -6.50 2.98 -3.14 1.61 -5.35 2.98 -4.97 2.98 0.46 0 3.36 -1.38 6.50 -2.98z m107.59 -8.95 c-0.31 -4.59 -0.99 -10.25 -1.68 -12.69 -2.52 -9.71 -2.98 -10.25 -41.37 -48.71 -31.35 -31.50 -36.24 -36.70 -36.24 -38.61 0 -1.76 1.22 -3.52 5.81 -8.11 l5.81 -5.89 -8.64 -2.06 c-4.82 -1.15 -16.29 -3.90 -25.54 -6.19 -9.18 -2.22 -16.90 -3.90 -17.13 -3.75 -0.31 0.38 10.55 49.17 11.39 50.70 0.31 0.69 2.37 -0.99 6.35 -5.12 4.66 -4.89 6.35 -6.19 8.03 -6.19 1.84 0 8.72 6.65 45.34 43.43 29.52 29.67 43.81 44.58 45.42 47.33 1.30 2.22 2.45 4.05 2.60 4.05 0.15 0 0.08 -3.67 -0.15 -8.18z m-97.65 4.36 c1.45 -0.84 2.37 -1.45 1.91 -1.45 -0.38 0 -1.99 0.61 -3.44 1.45 -1.45 0.84 -2.29 1.45 -1.91 1.45 0.46 0 1.99 -0.61 3.44 -1.45z m-58.88 -90.23 c2.29 0 3.44 0.84 8.56 5.89 4.05 4.05 6.04 5.51 6.27 4.74 0.76 -2.06 11.16 -50.70 10.93 -50.93 -0.15 -0.08 -2.29 0.31 -4.82 0.99 -5.43 1.45 -17.74 4.43 -34.18 8.41 l-12 2.91 5.35 5.43 c8.95 9.02 12.08 4.28 -34.03 50.62 l-39.30 39.61 -0.08 11.47 0 11.47 45.34 -45.34 c42.51 -42.44 45.42 -45.27 47.94 -45.27z m-27.53 63.54 c1.61 -3.14 3.06 -3.90 7.42 -3.90 3.59 0 4.66 0.38 7.19 2.37 3.44 2.68 3.98 2.52 6.65 -2.22 l1.68 -2.98 -4.51 -3.14 -4.43 -3.14 -2.45 3.36 c-2.22 3.06 -2.75 3.44 -5.51 3.44 -2.37 0 -3.98 -0.69 -7.03 -3.06 l-3.98 -2.98 -1.22 1.61 c-0.69 0.92 -1.84 2.60 -2.52 3.75 l-1.22 2.14 3.98 3.06 c2.22 1.68 4.28 3.14 4.59 3.14 0.31 0 0.92 -0.69 1.38 -1.45z m73.41 -9.10 c0 -0.38 -1.07 -1.76 -2.45 -3.14 -2.29 -2.29 -2.52 -2.37 -3.44 -1.15 -0.84 1.15 -0.76 1.61 0.69 3.14 1.53 1.68 5.20 2.45 5.20 1.15z m-121.43 -43.36 l0.23 -19.88 14.38 -0.23 14.30 -0.15 -1.84 -3.67 c-8.79 -17.36 -9.41 -40.53 -1.53 -56.20 6.65 -13.38 13.08 -19.27 43.89 -40.68 17.28 -12 23.47 -16.98 30.36 -24.47 7.19 -7.80 7.49 -7.80 16.90 1.76 7.95 7.95 15.37 13.76 33.42 26.15 16.44 11.32 22.25 15.83 28.37 22.33 12.46 13.08 17.74 29.21 15.68 47.87 -0.76 7.42 -3.82 17.66 -7.03 24.09 l-1.45 2.83 14.15 0 14.15 0 0 19.58 0 19.58 9.18 9.25 9.18 9.33 -0.08 -35.56 c-0.08 -19.58 -0.31 -36.32 -0.46 -37.24 -0.38 -1.68 -0.76 -1.76 -10.86 -1.91 l-10.40 -0.23 0.23 -3.44 c0.08 -1.91 0.23 -8.41 0.31 -14.53 0.15 -10.17 0 -11.70 -1.91 -17.97 -4.13 -13.46 -10.78 -24.32 -21.10 -34.56 -6.65 -6.65 -14.15 -12.39 -32.57 -25.08 -17.82 -12.31 -23.32 -16.59 -30.43 -23.78 -4.51 -4.59 -11.39 -13.92 -16.36 -22.33 l-1.53 -2.60 -2.52 4.51 c-4.28 7.57 -11.09 16.44 -17.74 22.86 -7.26 7.11 -11.47 10.32 -27.76 21.26 -12.39 8.26 -26.61 19.27 -32.88 25.39 -9.94 9.79 -17.43 22.10 -21.18 35.25 -1.61 5.35 -1.76 7.49 -1.68 20.65 l0.15 14.68 -10.48 0.23 -10.40 0.23 -0.23 37.09 -0.15 37.09 8.79 -8.79 8.79 -8.72 0.15 -19.96z m139.78 36.40 c0 -0.38 -0.54 -1.07 -1.15 -1.61 -0.92 -0.76 -1.38 -0.76 -2.29 0 -1.76 1.45 -1.38 2.29 1.15 2.29 1.30 0 2.29 -0.31 2.29 -0.69z"/>
  <path d="M296.76 557.28 c0 -1.38 1.30 -5.81 2.91 -9.79 l2.98 -7.26 3.29 0 3.29 0 3.29 7.26 c1.76 3.98 3.21 8.41 3.21 9.79 l0.08 2.45 -9.56 0 -9.56 0 0.08 -2.45z"/>
  <path d="M393.03 557.73 c0 -1.15 1.45 -5.66 3.21 -9.94 l3.21 -7.95 3.14 0 c3.52 0 3.21 -0.38 7.34 9.48 1.22 2.91 2.22 6.42 2.22 7.80 l0 2.60 -9.56 0 -9.56 0 0 -1.99z"/>
  <path d="M450.38 557.28 c0 -1.38 1.45 -6.04 3.21 -10.40 l3.21 -7.88 2.98 0.23 2.98 0.23 3.36 8.03 c1.84 4.36 3.36 8.95 3.36 10.09 l0 2.14 -9.56 0 -9.56 0 0 -2.45z"/>
 </g>
 <g fill="#0f4248">
  <path d="M381.94 723.59 c-2.52 -1.53 -13.53 -8.03 -24.47 -14.38 -44.35 -26 -97.49 -57.12 -116.61 -68.28 -11.16 -6.50 -26.76 -15.68 -34.79 -20.42 -15.37 -9.02 -61.17 -35.86 -87.48 -51.23 l-15.75 -9.18 -0.23 -173.19 -0.15 -173.19 3.98 -2.45 c2.22 -1.30 5.35 -3.06 6.88 -3.90 1.53 -0.92 4.21 -2.45 5.89 -3.52 1.68 -1.15 3.29 -1.99 3.59 -1.99 0.23 0 1.38 -0.61 2.45 -1.45 1.15 -0.76 11.39 -6.81 22.71 -13.46 11.39 -6.58 26.30 -15.37 33.26 -19.50 25.69 -15.14 48.63 -28.52 50.47 -29.29 1.07 -0.46 2.98 -1.61 4.21 -2.52 2.14 -1.53 72.64 -42.97 83.73 -49.24 2.75 -1.53 7.72 -4.43 11.09 -6.50 22.33 -13.38 54.21 -31.81 55.67 -32.12 2.06 -0.54 18.12 8.33 18.12 10.02 0 1.91 -4.59 1.15 -9.63 -1.68 l-4.89 -2.75 0 9.86 0 9.86 12.23 7.19 c11.16 6.58 12.23 7.42 12.23 9.33 0 2.52 -0.23 2.60 -3.36 0.69 -24.47 -14.60 -23.63 -14.15 -25.69 -12.92 -1.07 0.61 -17.36 10.17 -36.32 21.26 -18.89 11.09 -38 22.25 -42.44 24.85 -8.41 4.89 -49.63 29.06 -69.20 40.53 -50.47 29.67 -96.42 56.51 -103 60.25 l-6.73 3.75 0 158.51 0 158.44 2.91 1.91 c1.53 1.07 9.41 5.66 17.36 10.32 28.44 16.52 60.87 35.48 94.43 55.05 81.89 47.87 103.30 60.41 123.49 72.34 l21.41 12.69 2.52 -1.53 c3.14 -1.84 3.21 -1.84 3.21 0 0 0.84 0.38 1.61 0.84 1.76 0.61 0.23 1.07 3.75 1.30 10.09 l0.38 9.71 2.14 0.46 c1.22 0.23 2.22 0.69 2.22 1.07 0 0.76 -11.47 7.57 -12.62 7.49 -0.38 0 -2.83 -1.30 -5.35 -2.75z"/>
  <path d="M227.10 552.84 l0 -25.23 6.12 0 6.12 0 0 9.56 0 9.56 10.71 0 10.71 0 0 -9.56 0 -9.56 6.12 0 6.12 0 0 25.23 0 25.23 -6.12 0 -6.12 0 0 -10.32 0 -10.32 -10.71 0 -10.71 0 0 10.32 0 10.32 -6.12 0 -6.12 0 0 -25.23z"/>
  <path d="M278.33 577.31 c0 -0.76 5.58 -13.53 19.65 -45.27 l1.99 -4.43 6.19 0 6.19 0.08 4.97 10.86 c2.68 5.96 7.80 16.98 11.24 24.47 3.52 7.49 6.35 13.92 6.35 14.30 0 0.46 -2.75 0.76 -6.19 0.76 l-6.12 0 -2.37 -5.35 -2.37 -5.43 -11.55 0.23 -11.47 0.23 -2.06 4.97 -2.14 4.97 -6.12 0.23 c-4.21 0.15 -6.19 -0.08 -6.19 -0.61z m32.50 -26 c-4.59 -10.78 -5.05 -11.09 -7.26 -5.35 -0.76 1.91 -2.06 5.28 -2.98 7.49 l-1.61 3.98 7.26 0 7.19 0 -2.60 -6.12z"/>
  <path d="M348.68 569.05 l0 -9.02 -9.48 -15.75 c-5.20 -8.72 -9.25 -15.98 -9.02 -16.21 0.23 -0.23 3.06 -0.46 6.27 -0.46 l5.89 0 6.27 10.32 c3.52 5.66 6.58 10.17 6.96 9.94 0.31 -0.15 3.21 -4.82 6.50 -10.32 l5.89 -9.94 6.04 0 c3.36 0 6.04 0.23 6.04 0.46 0 0.31 -4.28 7.65 -9.56 16.29 l-9.56 15.83 0 8.95 0 8.95 -6.12 0 -6.12 0 0 -9.02z"/>
  <path d="M374.68 577.46 c0 -0.61 11.47 -26.61 19.73 -44.66 l2.37 -5.20 6.04 0 6.04 0 5.12 10.93 c2.83 5.96 7.80 16.67 11.01 23.78 3.21 7.03 6.19 12.92 6.58 13 0.38 0 5.35 -10.55 11.09 -23.63 l10.48 -23.70 6.42 0 6.42 0 5.12 11.09 c2.83 6.12 7.80 16.75 11.01 23.70 3.21 6.96 6.04 13.23 6.27 13.99 0.38 1.22 -0.15 1.38 -6.19 1.15 l-6.65 -0.23 -2.14 -4.97 -2.06 -4.97 -11.55 -0.23 -11.55 -0.23 -2.22 5.43 -2.14 5.35 -12.46 -0.15 -12.46 -0.23 -2.22 -4.97 -2.22 -4.97 -11.70 -0.23 -11.70 -0.15 -1.99 5.12 -1.99 5.20 -6.27 0.23 c-3.36 0.15 -6.19 -0.08 -6.19 -0.46z m35.17 -20.34 c0 -0.31 -4.05 -10.09 -5.35 -12.85 -0.54 -1.22 -1.38 -2.14 -1.91 -2.14 -0.46 0 -2.22 3.44 -3.98 7.65 l-3.06 7.65 7.11 0 c3.98 0 7.19 -0.15 7.19 -0.31z m53.91 -7.49 c-1.84 -4.28 -3.59 -7.95 -3.98 -8.03 -0.54 -0.23 -2.60 4.21 -6.88 14.91 -0.31 0.69 1.38 0.92 6.88 0.92 l7.26 0 -3.29 -7.80z"/>
  <path d="M501.38 577.54 c-0.31 -0.23 -0.54 -9.41 -0.54 -20.26 l0 -19.73 -7.65 0 -7.65 0 0 -4.97 0 -4.97 21.64 0 21.56 0 -0.23 4.97 -0.31 4.97 -7.57 0 -7.57 0 0 20.26 0 20.26 -5.58 0 c-3.14 0 -5.89 -0.23 -6.12 -0.54z"/>
  <path d="M535.25 552.84 l0 -25.23 6.12 0 6.12 0 0 25.23 0 25.23 -6.12 0 -6.12 0 0 -25.23z"/>
  <path d="M259.98 403.96 l0.08 -15.90 39.30 -39.61 c21.64 -21.72 39.38 -39.84 39.38 -40.22 0 -0.31 -3.14 -3.59 -6.88 -7.26 -3.82 -3.67 -6.73 -6.96 -6.50 -7.34 0.23 -0.31 7.03 -2.22 15.06 -4.21 15.83 -3.75 26.53 -6.42 33.87 -8.33 5.05 -1.38 10.32 -1.61 10.32 -0.54 0 0.92 -12.16 57.35 -12.69 58.88 -0.23 0.76 -2.98 -1.45 -8.41 -6.88 l-7.95 -7.95 -47.56 47.64 c-26.15 26.15 -47.64 47.56 -47.79 47.56 -0.15 0 -0.23 -7.11 -0.23 -15.83z"/>
  <path d="M260.13 335.91 l0.23 -41.14 10.32 -0.23 10.32 -0.23 0 -14.68 c0 -13 0.23 -15.37 1.76 -20.65 3.75 -13.15 11.24 -25.46 21.18 -35.25 6.27 -6.12 20.49 -17.13 32.88 -25.39 16.29 -10.93 20.49 -14.15 27.76 -21.26 6.58 -6.42 13.46 -15.22 17.66 -22.79 2.37 -4.13 5.05 -5.96 6.96 -4.82 0.46 0.31 0.76 7.03 0.76 16.21 l0 15.75 4.43 4.97 c2.37 2.75 7.19 7.42 10.71 10.40 5.58 4.74 6.27 5.66 6.27 7.95 l0 2.52 -4.74 -3.67 c-2.60 -1.99 -8.03 -6.96 -12.08 -11.01 l-7.34 -7.34 -5.20 5.58 c-6.65 7.34 -13 12.46 -30.28 24.39 -30.74 21.33 -37.24 27.37 -43.81 40.53 -3.14 6.19 -4.05 9.33 -5.12 17.43 -1.45 10.32 1.45 24.16 7.72 36.63 l2.98 5.96 -15.45 0.15 -15.52 0.23 -0.23 19.88 -0.15 19.88 -10.55 10.55 c-5.73 5.73 -10.71 10.48 -11.01 10.48 -0.38 0 -0.54 -18.50 -0.46 -41.06z"/>
  <path d="M470.79 291.94 c0.61 -2.22 1.15 -7.57 1.22 -11.93 0.08 -7.49 0.15 -7.88 1.68 -7.65 1.45 0.23 1.53 0.69 1.38 9.41 -0.23 11.32 -0.76 13.69 -3.44 13.99 l-1.91 0.23 1.07 -4.05z"/>
  <path d="M490.90 278.33 c0 -6.35 0.08 -6.88 1.53 -6.88 1.45 0 1.53 0.54 1.53 6.88 0 6.35 -0.08 6.88 -1.53 6.88 -1.45 0 -1.53 -0.54 -1.53 -6.88z"/>
 </g>
 <g fill="#165257">
  <path d="M391.65 719.53 c-0.92 -0.69 -0.99 -2.29 -0.08 -2.29 0.38 0 0.54 -0.31 0.31 -0.76 -0.23 -0.38 0 -0.76 0.54 -0.76 0.61 0 0.69 -0.23 0.23 -0.61 -1.22 -0.84 -1.38 -3.36 -0.31 -4.05 0.76 -0.46 0.76 -0.84 0 -1.76 -0.69 -0.76 -0.76 -1.22 -0.15 -1.22 0.46 0 0.69 -0.92 0.38 -2.45 -0.23 -1.38 -0.46 -3.29 -0.46 -4.28 0 -1.38 -0.23 -1.53 -0.99 -0.92 -0.76 0.61 -1.07 0.54 -1.30 -0.54 -0.46 -2.06 1.45 -5.43 3.36 -6.04 0.99 -0.23 2.22 -0.92 2.83 -1.38 0.54 -0.46 2.83 -1.84 5.12 -3.14 2.22 -1.22 10.71 -6.27 18.81 -11.16 8.11 -4.89 16.52 -9.94 18.66 -11.09 2.22 -1.22 6.50 -3.75 9.56 -5.58 3.14 -1.84 9.94 -5.81 15.22 -8.87 11.93 -6.81 34.33 -19.96 42.44 -24.85 3.36 -1.99 14.53 -8.56 24.85 -14.53 10.32 -6.04 26.15 -15.29 35.17 -20.65 15.98 -9.48 60.02 -35.33 73.56 -43.13 l6.73 -3.90 0 -158.82 0 -158.82 -12.77 -7.57 c-31.27 -18.43 -73.25 -43.05 -100.02 -58.65 -93.82 -54.75 -120.13 -70.19 -120.89 -71.19 -1.15 -1.38 -24.01 -14.91 -24.62 -14.53 -0.31 0.15 -0.46 -5.81 -0.31 -13.38 0.15 -7.49 0.46 -13.69 0.69 -13.69 0.23 0 3.21 1.61 6.65 3.59 3.36 1.91 6.65 3.52 7.26 3.52 0.99 0 15.45 8.33 75.39 43.51 14.76 8.64 39 22.86 53.91 31.58 14.91 8.72 32.80 19.19 39.76 23.32 6.96 4.13 24.01 14.07 37.85 22.17 22.48 13.15 50.08 29.36 59.11 34.72 l3.21 1.99 0 173.42 0 173.50 -4.74 2.91 c-2.68 1.53 -6.73 3.90 -9.02 5.20 -2.29 1.22 -4.74 2.75 -5.43 3.29 -0.61 0.61 -1.45 1.07 -1.76 1.07 -0.31 0 -2.37 1.22 -4.59 2.68 -2.22 1.45 -4.28 2.68 -4.51 2.68 -0.23 0 -3.29 1.76 -6.81 3.90 -3.52 2.06 -6.88 4.13 -7.49 4.51 -2.29 1.30 -14.91 8.79 -16.44 9.71 -0.84 0.54 -2.22 1.22 -3.06 1.68 -0.84 0.38 -2.68 1.61 -4.13 2.68 -1.45 1.07 -3.06 1.99 -3.52 1.99 -0.54 0 -2.37 1.07 -4.13 2.29 -1.76 1.30 -3.98 2.68 -4.89 3.14 -2.37 1.07 -7.42 3.98 -17.97 10.25 -0.76 0.46 -3.67 2.14 -6.58 3.82 -2.91 1.68 -6.35 3.67 -7.65 4.51 -7.11 4.21 -21.72 12.92 -23.02 13.69 -0.84 0.54 -2.60 1.68 -3.98 2.60 -1.30 0.99 -2.83 1.76 -3.29 1.76 -0.38 0 -3.44 1.68 -6.73 3.67 -3.21 1.99 -6.42 3.90 -7.03 4.21 -0.61 0.31 -2.14 1.22 -3.44 2.06 -1.22 0.84 -3.14 1.84 -4.13 2.29 -0.99 0.46 -3.36 1.84 -5.20 3.06 -1.84 1.30 -3.52 2.29 -3.75 2.29 -0.46 0 -14.83 8.49 -18.50 10.86 -1.15 0.76 -2.75 1.68 -3.59 2.06 -0.92 0.38 -2.06 1.22 -2.60 1.91 -0.54 0.69 -1.45 1.22 -2.06 1.22 -1.07 0 -17.05 9.18 -20.03 11.55 -1.07 0.76 -2.22 1.45 -2.68 1.45 -0.38 0 -2.45 1.22 -4.43 2.68 -2.06 1.45 -4.05 2.68 -4.43 2.68 -0.84 0 -13.84 7.49 -15.45 8.87 -0.61 0.61 -1.45 1.07 -1.76 1.07 -0.38 0 -5.89 3.14 -12.31 6.88 -10.40 6.19 -12 6.88 -14.91 6.73 -1.76 -0.15 -3.44 -0.38 -3.67 -0.61z"/>
  <path d="M260.97 531.43 c0 -2.29 0.15 -3.29 0.31 -2.06 0.15 1.15 0.15 2.98 0 4.21 -0.15 1.15 -0.31 0.15 -0.31 -2.14z"/>
  <path d="M513.61 428.97 c-0.69 -3.44 -4.43 -11.32 -7.49 -15.90 -1.38 -1.99 -21.56 -22.71 -44.81 -46.11 l-42.36 -42.51 -7.72 7.88 c-4.28 4.36 -7.88 7.80 -8.03 7.65 -0.38 -0.38 -12.31 -52.76 -12.92 -56.74 -0.38 -2.52 -0.23 -3.44 0.61 -3.75 1.07 -0.38 57.81 13 58.65 13.84 0.23 0.15 -2.98 3.67 -7.03 7.80 l-7.42 7.42 36.24 36.32 c38.31 38.39 38.77 38.92 41.44 48.71 1.15 4.28 2.45 31.43 1.68 36.17 -0.23 1.68 -0.31 1.61 -0.84 -0.76z"/>
  <path d="M260.21 401.82 c0 -2.91 0.15 -4.05 0.31 -2.45 0.15 1.53 0.15 3.98 0 5.35 -0.15 1.30 -0.31 0.08 -0.31 -2.91z"/>
  <path d="M502.60 366.27 l-10.93 -11.32 0 -19.58 0 -19.58 -15.29 0 -15.29 0 2.60 -5.12 c1.38 -2.91 3.52 -7.80 4.59 -10.93 1.15 -3.14 2.45 -6.12 2.83 -6.65 1.38 -1.61 2.68 -15.90 1.68 -17.97 -0.54 -0.99 -1.15 -3.29 -1.45 -5.20 -1.38 -9.56 -7.42 -20.80 -15.68 -29.44 -5.73 -5.96 -13.15 -11.62 -34.87 -26.76 -9.79 -6.81 -14.38 -10.71 -25.77 -22.17 -3.82 -3.75 -7.03 -6.81 -7.26 -6.73 -0.23 0.08 -0.46 -7.95 -0.46 -17.82 0 -13.46 0.23 -17.89 0.92 -17.89 0.54 0 2.29 2.29 3.98 5.20 4.97 8.41 9.56 14.60 15.06 20.26 7.11 7.19 12.46 11.47 30.51 23.86 18.43 12.69 25.92 18.43 32.57 25.08 10.40 10.25 17.05 21.26 21.03 34.56 1.91 6.35 2.06 7.95 2.06 20.26 0 7.34 -0.15 13.92 -0.31 14.53 -0.23 0.99 1.30 1.15 10.09 1.38 10.09 0.15 10.48 0.23 10.86 1.91 0.69 2.68 0.61 81.59 0 81.51 -0.38 -0.08 -5.51 -5.20 -11.47 -11.39z"/>
 </g>
 <g fill="#b3883d">
  <path d="M331.86 502.45 c0 -0.76 0.38 -2.45 0.76 -3.67 0.76 -2.06 2.37 -2.98 17.82 -9.71 9.41 -4.05 17.66 -7.34 18.43 -7.34 1.22 0 1.15 0.31 -0.46 3.21 -1.53 2.83 -2.60 3.59 -8.64 6.27 -3.75 1.61 -11.62 5.12 -17.36 7.80 -8.79 3.90 -10.55 4.51 -10.55 3.44z"/>
  <path d="M393.49 498.86 l-6.65 -4.97 1.38 -2.06 c5.58 -8.49 6.81 -10.09 7.34 -10.09 0.38 0 3.14 1.91 6.12 4.21 2.98 2.29 5.58 4.21 5.81 4.21 0.23 0 1.84 -2.06 3.52 -4.59 1.68 -2.52 3.36 -4.59 3.82 -4.59 1.61 0.08 13.38 9.33 12.92 10.17 -2.22 3.90 -7.57 12 -7.88 12 -0.31 0 -2.83 -1.68 -5.73 -3.82 -2.91 -2.06 -5.66 -3.82 -6.19 -3.82 -0.54 0 -2.37 1.91 -4.13 4.21 -1.76 2.29 -3.29 4.21 -3.44 4.21 -0.15 0 -3.21 -2.29 -6.88 -5.05z"/>
  <path d="M284.30 494.35 c-19.65 -4.97 -28.29 -22.25 -22.79 -45.42 2.91 -11.93 11.93 -28.37 15.68 -28.37 2.22 0 2.14 0.38 -2.52 9.63 -4.59 9.25 -5.81 13.61 -5.89 20.95 0 8.26 1.68 13.23 6.12 18.20 6.42 7.19 14.30 9.79 27.22 9.18 9.41 -0.54 17.82 -3.06 30.89 -9.33 11.62 -5.58 16.06 -8.41 14.76 -9.41 -2.22 -1.76 -11.70 -3.98 -28.29 -6.73 -1.61 -0.23 -2.91 -0.76 -2.91 -1.22 0 -1.45 4.66 -12.77 5.58 -13.53 0.54 -0.38 2.29 -0.92 4.05 -1.22 5.05 -0.76 13 -3.44 14.99 -4.97 l1.76 -1.45 -5.20 -10.25 c-2.83 -5.66 -5.12 -10.71 -5.12 -11.16 0 -1.84 3.90 -13.15 4.59 -13.15 1.30 0 5.43 5.89 8.95 12.85 3.59 7.03 3.67 7.26 3.59 14.15 -0.08 5.28 -0.46 8.18 -1.76 11.62 -2.45 6.65 -2.45 6.50 2.22 8.11 2.29 0.84 5.12 2.45 6.35 3.59 2.06 1.91 2.22 2.37 1.84 6.65 -0.54 6.73 -3.14 12.69 -7.49 17.59 -6.88 7.49 -22.94 16.82 -37.01 21.49 -7.19 2.37 -9.63 2.83 -16.82 3.06 -5.73 0.15 -9.79 -0.08 -12.77 -0.84z"/>
  <path d="M473.32 484.71 c0 -1.84 0.99 -3.44 4.74 -7.26 l4.66 -4.89 -5.05 0 c-5.81 0 -6.19 -0.54 -2.91 -3.90 1.99 -1.91 2.83 -2.22 6.73 -2.22 9.02 0 9.10 3.21 0.38 12.31 -3.67 3.98 -5.51 6.42 -5.20 7.19 0.31 0.84 -0.08 1.15 -1.45 1.15 -1.61 0 -1.91 -0.38 -1.91 -2.37z"/>
  <path d="M386.15 474.16 c-5.89 -1.22 -10.32 -4.97 -13 -10.93 -2.45 -5.58 -3.67 -16.75 -4.59 -40.76 -1.07 -28.98 -2.29 -40.30 -5.43 -49.40 l-1.53 -4.36 3.21 -6.96 c1.76 -3.82 3.67 -6.96 4.21 -6.96 1.15 0 3.59 7.65 5.28 16.29 1.22 6.04 2.29 22.86 3.36 52.15 0.76 20.57 1.61 25.31 5.20 30.13 2.68 3.52 6.42 4.97 11.85 4.43 6.42 -0.54 10.09 -2.98 15.75 -10.25 5.28 -6.88 7.03 -7.88 7.03 -3.82 0 4.21 2.98 9.10 6.88 11.24 4.66 2.52 13.69 2.45 22.71 -0.23 l6.19 -1.84 0.46 2.29 c0.76 3.82 0.54 5.89 -0.69 5.89 -0.84 0 -0.99 0.76 -0.61 3.67 0.38 3.36 0.23 3.75 -1.61 4.59 -1.15 0.54 -3.75 0.92 -5.73 0.92 -2.75 0 -4.05 0.38 -5.12 1.61 -1.30 1.53 -2.06 1.61 -8.72 1.22 -9.10 -0.46 -12.77 -1.91 -17.13 -6.73 -1.84 -2.06 -3.67 -3.75 -4.05 -3.75 -0.31 0 -2.29 1.99 -4.36 4.28 -5.81 6.65 -11.78 8.79 -19.58 7.26z"/>
  <path d="M293.93 432.10 c1.15 -1.15 4.05 -3.14 6.42 -4.28 2.37 -1.15 5.20 -2.60 6.27 -3.29 l1.91 -1.22 -1.91 -0.54 c-1.07 -0.31 -5.12 -0.54 -8.95 -0.61 -3.90 -0.08 -7.11 -0.23 -7.11 -0.46 0 -1.15 3.29 -6.65 4.74 -8.03 1.38 -1.30 2.68 -1.53 8.26 -1.53 6.96 0 14.53 1.68 14.53 3.29 0 1.68 -4.36 8.49 -7.34 11.55 -1.53 1.61 -4.05 3.44 -5.58 4.13 -3.44 1.45 -9.94 3.21 -11.85 3.21 -1.38 0 -1.30 -0.23 0.61 -2.22z"/>
  <path d="M389.59 426.52 c1.53 -5.05 3.14 -7.11 7.88 -9.63 7.19 -3.90 23.86 -10.93 24.70 -10.48 0.38 0.31 0.69 1.15 0.69 1.99 0 0.84 0.54 1.45 1.22 1.45 2.98 0 -0.08 2.06 -8.95 6.12 -5.20 2.37 -13 6.04 -17.28 8.26 -4.36 2.22 -8.03 3.98 -8.33 3.98 -0.23 0 -0.15 -0.76 0.08 -1.68z"/>
  <path d="M406.49 395.32 c-0.23 -0.61 -0.76 -2.68 -1.30 -4.59 -0.46 -1.84 -1.68 -5.05 -2.68 -7.03 -1.61 -3.21 -2.14 -3.67 -4.28 -3.67 -2.68 0 -6.73 -3.21 -6.73 -5.28 0 -2.37 2.98 -6.19 4.74 -6.19 3.21 0.08 7.88 5.35 10.40 11.85 1.38 3.44 1.61 3.59 1.91 1.91 0.23 -1.07 0.84 -3.82 1.38 -6.12 0.99 -4.51 2.45 -7.95 4.36 -10.09 3.90 -4.51 11.01 2.60 7.49 7.42 -0.92 1.22 -1.22 1.30 -2.22 0.46 -0.69 -0.54 -2.14 -0.84 -3.36 -0.69 -2.29 0.23 -2.68 1.22 -5.58 15.29 -0.92 4.82 -3.36 8.79 -4.13 6.73z"/>
  <path d="M320.23 387.22 l-6.65 -5.05 3.82 -5.66 c2.60 -3.98 4.28 -5.66 5.35 -5.66 0.84 0 3.59 1.53 6.04 3.44 2.45 1.91 4.82 3.44 5.20 3.44 0.38 0 2.14 -1.91 3.90 -4.21 1.76 -2.29 3.36 -4.21 3.59 -4.21 0.69 0 11.62 7.72 12.54 8.87 0.69 0.76 0.31 1.99 -1.84 5.43 -1.53 2.45 -3.36 5.28 -4.21 6.27 l-1.38 1.84 -4.66 -3.52 c-6.50 -5.05 -8.26 -4.89 -12.39 1.22 -1.07 1.53 -2.06 2.83 -2.29 2.83 -0.23 0 -3.36 -2.29 -7.03 -5.05z"/>
 </g>
 <g fill="#c09546">
  <path d="M474.69 492.74 c-2.37 -1.22 -3.36 -3.90 -2.60 -6.81 0.46 -1.84 4.43 -6.50 5.51 -6.50 0.31 0 1.15 -0.46 1.76 -1.07 1.61 -1.45 2.68 -1.76 2.98 -0.84 0.08 0.46 -0.31 0.76 -0.76 0.76 -0.54 0.08 -0.92 0.54 -0.76 1.07 0.08 0.54 -0.15 0.76 -0.46 0.54 -0.76 -0.46 -2.98 1.68 -3.21 2.98 -0.08 0.46 -0.31 0.92 -0.54 1.15 -0.31 0.23 -0.23 -0.15 0.15 -0.76 0.46 -0.92 0.38 -0.92 -0.31 -0.31 -1.38 1.30 0.23 3.98 2.68 4.59 1.84 0.46 7.42 0.15 15.60 -0.92 l3.44 -0.46 -1.91 2.06 c-3.44 3.75 -8.49 5.73 -14.30 5.73 -3.06 -0.08 -6.04 -0.54 -7.26 -1.22z"/>
  <path d="M437 472.55 c0.31 -0.46 -0.54 -0.76 -1.84 -0.76 -1.76 0 -2.37 -0.31 -2.29 -1.30 0 -0.92 0.15 -0.99 0.46 -0.38 0.31 0.76 0.69 0.69 1.84 -0.31 1.07 -0.92 1.45 -1.07 1.45 -0.31 0 0.69 0.61 0.46 1.76 -0.61 0.99 -0.92 1.99 -1.45 2.29 -1.22 0.31 0.31 0.99 0.08 1.68 -0.46 0.92 -0.76 1.38 -0.76 2.37 0.08 0.99 0.76 1.30 0.76 1.91 -0.15 0.46 -0.76 0.69 -0.84 0.69 -0.08 0 0.76 0.38 0.76 1.53 0.15 1.38 -0.76 1.45 -0.99 0.38 -1.99 -1.30 -1.30 -1.53 -2.14 -0.38 -1.45 0.46 0.31 0.76 -0.38 0.76 -1.53 0 -1.76 -0.15 -1.84 -1.53 -1.15 -1.22 0.69 -1.53 0.61 -1.53 -0.38 0 -0.76 0.38 -0.99 0.92 -0.69 0.54 0.38 0.69 0.15 0.38 -0.69 -0.31 -0.92 -0.15 -1.07 0.76 -0.76 0.92 0.38 1.07 0.23 0.61 -0.61 -0.46 -0.84 -0.38 -0.92 0.46 -0.08 1.53 1.38 2.60 1.07 1.30 -0.38 -2.06 -2.45 -2.37 -3.29 -0.84 -2.75 0.76 0.23 1.15 0.15 0.76 -0.15 -0.31 -0.38 3.52 -2.22 8.56 -4.13 5.05 -1.91 9.33 -3.75 9.56 -3.98 0.31 -0.23 -3.67 -1.91 -8.79 -3.75 -8.33 -2.91 -9.63 -3.14 -12.08 -2.37 -2.06 0.61 -4.97 0.61 -11.39 -0.08 l-8.64 -0.99 2.75 -5.51 c3.36 -6.73 6.65 -9.71 11.85 -10.86 7.49 -1.61 9.48 -1.15 28.44 6.58 13.76 5.51 26.99 9.18 35.79 9.94 3.14 0.23 6.12 0.61 6.65 0.92 0.61 0.31 0 2.52 -2.22 7.42 l-3.06 6.96 -11.55 0.46 c-12 0.46 -18.66 1.91 -26.38 5.81 -1.53 0.76 -4.21 1.84 -5.89 2.37 -1.68 0.54 -5.96 2.37 -9.56 4.05 -3.59 1.61 -8.87 3.59 -11.85 4.43 -6.27 1.68 -6.73 1.68 -6.12 0.69z"/>
  <path d="M474.01 472.40 c-0.99 -3.36 0.61 -4.82 4.89 -4.59 5.96 0.38 7.26 0.84 6.88 2.52 -0.31 0.92 -0.92 1.38 -1.68 1.15 -1.61 -0.46 -5.35 -0.69 -7.72 -0.38 -1.07 0.08 0.15 0.38 2.68 0.69 l4.59 0.54 -4.74 0.08 c-2.68 0.08 -4.82 0.08 -4.89 0z"/>
  <path d="M418.80 410.85 c0.23 -0.54 0.76 -0.99 1.30 -0.99 0.54 0 0.54 -0.23 0.08 -0.61 -1.61 -1.15 -0.99 -2.37 1.76 -3.29 1.53 -0.46 3.21 -1.15 3.59 -1.45 0.46 -0.38 2.68 -1.38 4.97 -2.29 2.29 -0.84 5.28 -2.06 6.50 -2.60 4.74 -2.14 15.37 -6.42 18.35 -7.34 1.68 -0.46 4.43 -1.53 6.12 -2.37 1.68 -0.76 4.21 -1.61 5.51 -1.91 l2.45 -0.46 -1.22 3.14 c-1.38 3.44 -2.91 4.74 -7.95 6.42 -3.90 1.38 -12.23 4.74 -26.46 10.78 -9.94 4.21 -15.90 5.43 -14.99 2.98z"/>
 </g>
</svg>